<?xml version="1.0"?>
<svg xmlns="http://www.w3.org/2000/svg" xmlns:xlink="http://www.w3.org/1999/xlink" xmlns:svgjs="http://svgjs.com/svgjs" version="1.1" width="512" height="512" x="0" y="0" viewBox="0 0 512 512" style="enable-background:new 0 0 512 512" xml:space="preserve" class=""><g><g xmlns="http://www.w3.org/2000/svg"><path d="m282.635 188.84h-53.27c-9.649 0-17.5 7.851-17.5 17.5v48.505c0 1.378-1.122 2.5-2.5 2.5h-48.505c-9.65 0-17.5 7.851-17.5 17.5v53.27c0 9.649 7.85 17.5 17.5 17.5h48.505c1.378 0 2.5 1.122 2.5 2.5v48.505c0 9.65 7.851 17.5 17.5 17.5h53.27c9.649 0 17.5-7.85 17.5-17.5v-48.505c0-1.378 1.121-2.5 2.5-2.5h48.505c9.65 0 17.5-7.851 17.5-17.5v-10.292c0-4.142-3.358-7.5-7.5-7.5s-7.5 3.358-7.5 7.5v10.292c0 1.378-1.121 2.5-2.5 2.5h-48.505c-9.649 0-17.5 7.851-17.5 17.5v48.505c0 1.379-1.122 2.5-2.5 2.5h-53.27c-1.378 0-2.5-1.121-2.5-2.5v-48.505c0-9.649-7.851-17.5-17.5-17.5h-48.505c-1.379 0-2.5-1.122-2.5-2.5v-53.27c0-1.378 1.121-2.5 2.5-2.5h48.505c9.649 0 17.5-7.851 17.5-17.5v-48.505c0-1.378 1.122-2.5 2.5-2.5h53.27c1.378 0 2.5 1.122 2.5 2.5v48.505c0 9.649 7.851 17.5 17.5 17.5h48.505c1.379 0 2.5 1.122 2.5 2.5v10.292c0 4.142 3.358 7.5 7.5 7.5s7.5-3.358 7.5-7.5v-10.292c0-9.649-7.85-17.5-17.5-17.5h-48.505c-1.379 0-2.5-1.122-2.5-2.5v-48.505c0-9.649-7.851-17.5-17.5-17.5z" fill="#92b6b1" data-original="#000000" style=""/><path d="m489.5 129.452h-31.651c-.339-9.353-8.033-16.863-17.468-16.863h-23.239c-9.434 0-17.129 7.51-17.468 16.863h-29.153v-48.461c0-23.435-19.065-42.5-42.5-42.5h-86.06c-4.142 0-7.5 3.358-7.5 7.5s3.358 7.5 7.5 7.5h86.06c15.164 0 27.5 12.336 27.5 27.5v48.461h-25v-33.461c0-9.649-7.851-17.5-17.5-17.5h-114.042c-9.649 0-17.5 7.851-17.5 17.5v33.461h-25v-48.461c0-15.164 12.336-27.5 27.5-27.5h25.295c4.142 0 7.5-3.358 7.5-7.5s-3.358-7.5-7.5-7.5h-25.295c-23.435 0-42.5 19.065-42.5 42.5v48.461h-29.153c-.339-9.353-8.033-16.863-17.468-16.863h-23.239c-9.434 0-17.128 7.51-17.468 16.863h-31.651c-12.407 0-22.5 10.093-22.5 22.5v187.39c0 4.142 3.358 7.5 7.5 7.5s7.5-3.358 7.5-7.5v-187.39c0-4.136 3.364-7.5 7.5-7.5h31.619v22.162c0 9.649 7.851 17.5 17.5 17.5h23.239c9.649 0 17.5-7.851 17.5-17.5v-22.162h287.284v22.162c0 9.649 7.851 17.5 17.5 17.5h23.239c9.649 0 17.5-7.851 17.5-17.5v-22.162h31.619c4.136 0 7.5 3.364 7.5 7.5v247.168h-19.589c-34.346 0-62.715 26.025-66.457 59.389h-309.909c-3.741-33.363-32.111-59.389-66.457-59.389h-19.588v-27.092c0-4.142-3.358-7.5-7.5-7.5s-7.5 3.358-7.5 7.5v78.981c0 12.407 10.093 22.5 22.5 22.5h467c12.407 0 22.5-10.093 22.5-22.5v-299.057c0-12.407-10.093-22.5-22.5-22.5zm-293.021-33.461c0-1.379 1.122-2.5 2.5-2.5h114.042c1.378 0 2.5 1.121 2.5 2.5v33.461h-119.042zm-99.121 70.623c0 1.378-1.122 2.5-2.5 2.5h-23.239c-1.378 0-2.5-1.122-2.5-2.5v-36.525c0-1.378 1.122-2.5 2.5-2.5h23.239c1.378 0 2.5 1.122 2.5 2.5zm345.523 0c0 1.378-1.122 2.5-2.5 2.5h-23.239c-1.378 0-2.5-1.122-2.5-2.5v-36.525c0-1.378 1.122-2.5 2.5-2.5h23.239c1.378 0 2.5 1.122 2.5 2.5zm-427.881 284.395v-36.889h19.589c26.064 0 47.693 19.32 51.339 44.389h-63.428c-4.136 0-7.5-3.364-7.5-7.5zm474.5 7.5h-63.428c3.646-25.069 25.275-44.389 51.339-44.389h19.589v36.889c0 4.136-3.364 7.5-7.5 7.5z" fill="#92b6b1" data-original="#000000" style=""/></g></g></svg>
