<?xml version="1.0"?>
<svg xmlns="http://www.w3.org/2000/svg" xmlns:xlink="http://www.w3.org/1999/xlink" xmlns:svgjs="http://svgjs.com/svgjs" version="1.1" width="512" height="512" x="0" y="0" viewBox="0 0 511.941 511.941" style="enable-background:new 0 0 512 512" xml:space="preserve" class=""><g><g xmlns="http://www.w3.org/2000/svg"><g><path d="m168.039 263.93c-4.452 0-8.846-1.167-12.805-3.453-5.943-3.432-10.195-8.973-11.971-15.602l-5.808-21.675c-1.776-6.63-.864-13.554 2.567-19.498 3.432-5.943 8.973-10.195 15.602-11.971 13.683-3.666 27.801 4.484 31.468 18.169l5.808 21.675c3.666 13.686-4.484 27.802-18.169 31.469-2.214.593-4.46.886-6.692.886zm-5.768-58.075c-.914 0-1.842.118-2.766.366-2.759.739-5.065 2.509-6.493 4.982-1.428 2.474-1.808 5.355-1.068 8.115l5.808 21.675c.739 2.76 2.509 5.066 4.982 6.494s5.354 1.809 8.115 1.068c5.695-1.526 9.088-7.401 7.562-13.098l-5.808-21.675c-1.279-4.772-5.611-7.927-10.332-7.927z" fill="#b2c9ab" data-original="#000000" style="" class=""/></g><g><path d="m343.403 263.922c-2.195 0-4.424-.284-6.643-.878-13.685-3.667-21.835-17.784-18.168-31.469l5.808-21.675c3.666-13.685 17.777-21.833 31.469-18.169 13.685 3.667 21.835 17.783 18.168 31.468l-5.808 21.675c-3.074 11.467-13.484 19.048-24.826 19.048zm5.816-58.067c-4.722 0-9.053 3.155-10.332 7.927l-5.808 21.675c-1.525 5.696 1.866 11.572 7.563 13.098 5.691 1.525 11.571-1.865 13.098-7.563l5.808-21.674c.739-2.759.359-5.641-1.068-8.115-1.429-2.474-3.734-4.243-6.494-4.982-.924-.248-1.853-.366-2.767-.366z" fill="#b2c9ab" data-original="#000000" style="" class=""/></g><g><g><path d="m220.299 218.273c-14.167 0-25.694-11.526-25.694-25.694v-22.44c0-14.168 11.526-25.694 25.694-25.694s25.694 11.526 25.694 25.694v22.44c0 14.168-11.526 25.694-25.694 25.694zm0-58.828c-5.896 0-10.694 4.797-10.694 10.694v22.44c0 5.896 4.797 10.694 10.694 10.694s10.694-4.797 10.694-10.694v-22.44c0-5.897-4.797-10.694-10.694-10.694z" fill="#b2c9ab" data-original="#000000" style="" class=""/></g></g><g><g><path d="m291.191 218.273c-14.167 0-25.693-11.526-25.693-25.694v-22.44c0-14.168 11.526-25.694 25.693-25.694 14.168 0 25.694 11.526 25.694 25.694v22.44c0 14.168-11.526 25.694-25.694 25.694zm0-58.828c-5.897 0-10.693 4.797-10.693 10.694v22.44c0 5.896 4.797 10.694 10.693 10.694s10.694-4.797 10.694-10.694v-22.44c0-5.897-4.798-10.694-10.694-10.694z" fill="#b2c9ab" data-original="#000000" style="" class=""/></g></g><g><path d="m287.88 367.592c-8.679 0-17.204-2.118-24.824-6.187-4.333-2.313-9.507-2.313-13.839 0-8.468 4.522-18.056 6.636-27.728 6.108-27.249-1.483-49.116-24.034-49.783-51.338-.546-22.314 13.09-42.646 33.931-50.594 1.403-.535 2.558-1.601 3.253-3.002 8.976-18.08 27.08-29.311 47.246-29.311s38.27 11.232 47.246 29.311c.695 1.401 1.851 2.467 3.253 3.002 20.843 7.948 34.479 28.281 33.932 50.597-.183 7.428-1.906 14.598-5.123 21.31-1.792 3.736-6.273 5.312-10.006 3.522-3.734-1.79-5.312-6.27-3.522-10.005 2.296-4.788 3.524-9.9 3.654-15.195.392-15.973-9.365-30.526-24.28-36.214-4.936-1.882-8.965-5.557-11.344-10.347-6.425-12.942-19.38-20.981-33.81-20.981s-27.386 8.04-33.811 20.981c-2.378 4.79-6.407 8.465-11.345 10.348-14.913 5.687-24.67 20.239-24.28 36.212.478 19.533 16.116 35.665 35.603 36.727 6.935.376 13.797-1.131 19.847-4.362 8.758-4.675 19.213-4.676 27.97 0 6.049 3.23 12.905 4.735 19.846 4.362 3.441-.187 6.837-.852 10.091-1.976 3.916-1.356 8.185.726 9.537 4.641 1.353 3.915-.726 8.185-4.641 9.538-4.571 1.579-9.34 2.512-14.173 2.775-.966.051-1.935.078-2.9.078z" fill="#b2c9ab" data-original="#000000" style="" class=""/></g><g><path d="m255.94 466.302c-8.681 0-16.842-3.38-22.98-9.519l-139.612-139.611c-2.929-2.929-2.929-7.678 0-10.606 2.929-2.929 7.678-2.929 10.607 0l139.612 139.611c3.305 3.305 7.7 5.125 12.374 5.125s9.07-1.82 12.376-5.125l196.146-196.148c20.944-20.944 32.479-48.79 32.479-78.408 0-29.619-11.534-57.464-32.479-78.408-42.003-42.004-109.249-43.568-153.088-3.562-3.061 2.792-7.804 2.575-10.596-.484-2.792-3.06-2.575-7.803.484-10.596 49.776-45.424 126.119-43.651 173.807 4.035 23.776 23.777 36.871 55.39 36.871 89.015s-13.095 65.238-36.872 89.015l-196.147 196.147c-6.139 6.139-14.301 9.519-22.982 9.519z" fill="#b2c9ab" data-original="#000000" style="" class=""/></g><g><path d="m75.539 296.256c-1.919 0-3.839-.732-5.303-2.197l-33.424-33.424c-49.083-49.082-49.083-128.946 0-178.029 49.083-49.082 128.946-49.083 178.029 0l41.1 41.1 21.873-21.874c2.929-2.928 7.677-2.93 10.607 0 2.929 2.929 2.929 7.678 0 10.606l-27.177 27.177c-1.407 1.407-3.314 2.197-5.304 2.197-1.989 0-3.897-.79-5.303-2.197l-46.403-46.403c-43.234-43.233-113.581-43.234-156.816.001-43.234 43.235-43.234 113.582 0 156.816l33.424 33.424c2.929 2.929 2.929 7.678 0 10.606-1.464 1.465-3.384 2.197-5.303 2.197z" fill="#b2c9ab" data-original="#000000" style="" class=""/></g></g></g></svg>
